<svg width="20" height="19" viewBox="0 0 20 19" fill="none" xmlns="http://www.w3.org/2000/svg">
<path d="M18.976 18.6207C17.8186 18.5932 16.6889 18.5932 15.5315 18.6207C15.2835 18.6207 15.2284 18.5656 15.2284 18.3176C15.2284 16.2785 15.2284 14.2119 15.2284 12.1728C15.2284 11.7043 15.2009 11.2359 15.0631 10.795C14.6498 9.3621 12.9964 8.83855 11.8115 9.80299C11.1778 10.299 10.9298 10.9879 10.9298 11.8145C10.9298 13.7434 10.9298 15.6723 10.9298 17.6012C10.9298 17.8492 10.9022 18.0972 10.9298 18.3727C10.9573 18.5932 10.8471 18.6483 10.6542 18.6207C9.46933 18.6207 8.312 18.6207 7.12712 18.6207C6.90667 18.6207 6.85156 18.5656 6.85156 18.3452C6.87912 16.6092 6.87912 14.8732 6.87912 13.1096C6.87912 10.9603 6.87912 8.81099 6.85156 6.68922C6.85156 6.44122 6.90667 6.38611 7.12712 6.38611C8.312 6.38611 9.46933 6.38611 10.6542 6.38611C10.8747 6.38611 10.9298 6.44122 10.9298 6.66167C10.9298 7.10255 10.9298 7.54344 10.9298 8.06699C11.0124 7.98433 11.04 7.95677 11.0675 7.92922C12.1422 6.35856 13.6578 5.91767 15.4489 6.19322C17.5155 6.52389 18.8382 7.95677 19.1689 10.1612C19.2515 10.6848 19.2791 11.2083 19.2791 11.7319C19.2791 13.9363 19.2791 16.1132 19.2791 18.3176C19.2791 18.5381 19.224 18.6207 18.976 18.6207Z" fill="#344440"/>
<path d="M4.64709 12.5034C4.64709 14.4323 4.64709 16.3612 4.64709 18.2901C4.64709 18.5381 4.59198 18.6207 4.34398 18.6207C3.18665 18.5932 2.02932 18.6207 0.87199 18.6207C0.651546 18.6207 0.596436 18.5656 0.596436 18.3452C0.596436 14.4599 0.596436 10.547 0.596436 6.66166C0.596436 6.46877 0.651546 6.38611 0.87199 6.38611C2.05688 6.38611 3.24176 6.38611 4.42665 6.38611C4.67464 6.38611 4.7022 6.46877 4.7022 6.68922C4.64709 8.6181 4.64709 10.547 4.64709 12.5034Z" fill="#344440"/>
<path d="M4.83991 3.18972C4.56436 4.29194 3.43458 4.92571 2.13947 4.70527C0.761701 4.48483 -0.00985231 3.13461 0.486146 1.81195C0.816812 0.985281 1.61592 0.489283 2.63547 0.516838C4.17858 0.489283 5.19813 1.72928 4.83991 3.18972Z" fill="#344440"/>
</svg>
