<svg width="17" height="17" viewBox="0 0 17 17" fill="none" xmlns="http://www.w3.org/2000/svg">
<path d="M16.3281 16.4481C15.3438 16.4245 14.3828 16.4245 13.3984 16.4481C13.1875 16.4481 13.1406 16.4009 13.1406 16.1884C13.1406 14.4411 13.1406 12.6703 13.1406 10.9231C13.1406 10.5217 13.1172 10.1203 13 9.74257C12.6484 8.5148 11.2422 8.06619 10.2344 8.89258C9.69531 9.31757 9.48437 9.90785 9.48437 10.6162C9.48437 12.2689 9.48437 13.9217 9.48437 15.5745C9.48437 15.787 9.46094 15.9995 9.48437 16.2356C9.50781 16.4245 9.41406 16.4717 9.25 16.4481C8.24219 16.4481 7.25781 16.4481 6.25 16.4481C6.0625 16.4481 6.01562 16.4009 6.01562 16.212C6.03906 14.7245 6.03906 13.237 6.03906 11.7259C6.03906 9.88424 6.03906 8.04258 6.01562 6.22454C6.01562 6.01204 6.0625 5.96482 6.25 5.96482C7.25781 5.96482 8.24219 5.96482 9.25 5.96482C9.4375 5.96482 9.48437 6.01204 9.48437 6.20093C9.48437 6.5787 9.48437 6.95648 9.48437 7.40509C9.55469 7.33425 9.57812 7.31064 9.60156 7.28703C10.5156 5.94121 11.8047 5.56343 13.3281 5.79954C15.0859 6.08287 16.2109 7.31064 16.4922 9.19952C16.5625 9.64813 16.5859 10.0967 16.5859 10.5453C16.5859 12.4342 16.5859 14.2995 16.5859 16.1884C16.5859 16.3772 16.5391 16.4481 16.3281 16.4481Z" fill="white"/>
<path d="M4.14062 11.2064C4.14062 12.8591 4.14062 14.5119 4.14062 16.1646C4.14062 16.3771 4.09375 16.448 3.88281 16.448C2.89844 16.4244 1.91406 16.448 0.929687 16.448C0.742187 16.448 0.695312 16.4008 0.695312 16.2119C0.695312 12.8827 0.695312 9.52997 0.695312 6.20083C0.695312 6.03555 0.742187 5.96472 0.929687 5.96472C1.9375 5.96472 2.94531 5.96472 3.95312 5.96472C4.16406 5.96472 4.1875 6.03555 4.1875 6.22444C4.14062 7.87721 4.14062 9.52997 4.14062 11.2064Z" fill="white"/>
<path d="M4.30468 3.22589C4.07031 4.17033 3.10937 4.71338 2.00781 4.52449C0.835934 4.3356 0.179684 3.17867 0.601559 2.04534C0.882809 1.33701 1.5625 0.912016 2.42968 0.935627C3.74218 0.912016 4.60937 1.97451 4.30468 3.22589Z" fill="white"/>
</svg>
