<svg width="39" height="15" viewBox="0 0 39 15" fill="none" xmlns="http://www.w3.org/2000/svg">
<path d="M36.266 0.974121H19.4715C18.9168 0.974121 17.5872 1.27672 16.8995 2.78974C16.7619 3.09234 13.9239 9.7496 13.4195 11.2626C12.9656 12.6243 12.3605 14.2886 14.9326 14.2886H30.9706C32.6349 14.2886 33.4923 14.2886 34.2992 12.473C34.9044 11.1113 37.4765 4.45405 37.9304 3.24364C38.4851 1.76459 37.9304 0.974121 36.266 0.974121Z" stroke="#474A50" stroke-linecap="round"/>
<path d="M19.623 3.69751C19.623 3.69751 22.3829 6.17772 23.2543 6.87484C24.7673 8.08525 26.3454 7.91218 28.2472 6.87484C29.9115 5.96703 34.148 3.69751 34.148 3.69751" stroke="#474A50" stroke-linecap="round"/>
<path d="M15.5378 11.5652L22.3464 8.8418" stroke="#474A50" stroke-linecap="round"/>
<path d="M28.0959 8.8418L31.5759 11.7165" stroke="#474A50" stroke-linecap="round"/>
<path d="M13.2682 2.33582H7.97266" stroke="#474A50" stroke-linecap="round"/>
<path d="M10.3937 7.78259H4.03906" stroke="#474A50" stroke-linecap="round"/>
<path d="M9.03185 12.9269H0.861572" stroke="#474A50" stroke-linecap="round"/>
</svg>
