<svg width="14" height="18" viewBox="0 0 14 18" fill="#474A50" xmlns="http://www.w3.org/2000/svg">
<path fill-rule="evenodd" clip-rule="evenodd" d="M10.7115 5.59541C11.9211 5.59541 12.9017 4.61455 12.9017 3.4046C12.9017 2.19465 11.9211 1.21379 10.7115 1.21379C9.50195 1.21379 8.52139 2.19465 8.52139 3.4046C8.52139 4.61455 9.50195 5.59541 10.7115 5.59541ZM10.7115 6.43652C12.3855 6.43652 13.7425 5.07908 13.7425 3.4046C13.7425 1.73012 12.3855 0.372681 10.7115 0.372681C9.03756 0.372681 7.68054 1.73012 7.68054 3.4046C7.68054 5.07908 9.03756 6.43652 10.7115 6.43652Z" fill="#474A50"/>
<path fill-rule="evenodd" clip-rule="evenodd" d="M10.7115 16.8136C11.9211 16.8136 12.9017 15.8327 12.9017 14.6227C12.9017 13.4128 11.9211 12.4319 10.7115 12.4319C9.50195 12.4319 8.52139 13.4128 8.52139 14.6227C8.52139 15.8327 9.50195 16.8136 10.7115 16.8136ZM10.7115 17.6547C12.3855 17.6547 13.7425 16.2972 13.7425 14.6227C13.7425 12.9483 12.3855 11.5908 10.7115 11.5908C9.03756 11.5908 7.68054 12.9483 7.68054 14.6227C7.68054 16.2972 9.03756 17.6547 10.7115 17.6547Z" fill="#474A50"/>
<path fill-rule="evenodd" clip-rule="evenodd" d="M3.58531 11.1691C4.79489 11.1691 5.77545 10.1883 5.77545 8.97833C5.77545 7.76838 4.79489 6.78752 3.58531 6.78752C2.37573 6.78752 1.39517 7.76838 1.39517 8.97833C1.39517 10.1883 2.37573 11.1691 3.58531 11.1691ZM3.58531 12.0103C5.25928 12.0103 6.6163 10.6528 6.6163 8.97833C6.6163 7.30385 5.25928 5.94641 3.58531 5.94641C1.91134 5.94641 0.554321 7.30385 0.554321 8.97833C0.554321 10.6528 1.91134 12.0103 3.58531 12.0103Z" fill="#474A50"/>
<path fill-rule="evenodd" clip-rule="evenodd" d="M5.45209 6.92455L8.35555 4.64258L8.87504 5.30396L5.97158 7.58593L5.45209 6.92455Z" fill="#474A50"/>
<path fill-rule="evenodd" clip-rule="evenodd" d="M8.18891 13.3675L5.47479 11.0683L6.01847 10.4265L8.73259 12.7258L8.18891 13.3675Z" fill="#474A50"/>
</svg>
