<svg width="21" height="18" viewBox="0 0 21 18" fill="none" xmlns="http://www.w3.org/2000/svg">
<path d="M18.5071 4.48728C18.5071 4.68017 18.5071 4.87306 18.5071 5.03839C18.5071 10.7424 14.2985 17.3281 6.62702 17.3281C4.25634 17.3281 2.07211 16.6117 0.20752 15.3992C0.527163 15.4268 0.873443 15.4544 1.19309 15.4544C3.13758 15.4544 4.9489 14.7655 6.38729 13.6081C4.54934 13.5806 3.0044 12.313 2.4983 10.6046C2.76467 10.6597 3.0044 10.6873 3.29741 10.6873C3.67032 10.6873 4.04324 10.6322 4.38952 10.5219C2.47166 10.1362 1.03326 8.40016 1.03326 6.30594C1.03326 6.27839 1.03326 6.27839 1.03326 6.25083C1.59264 6.5815 2.23193 6.77439 2.92449 6.80194C1.80574 6.03039 1.0599 4.70773 1.0599 3.19218C1.0599 2.39307 1.273 1.64907 1.61928 1.0153C3.67032 3.63306 6.76021 5.3415 10.223 5.53439C10.1431 5.23128 10.1165 4.87306 10.1165 4.54239C10.1165 2.14507 11.9811 0.216187 14.2985 0.216187C15.4971 0.216187 16.5892 0.73974 17.3351 1.5664C18.294 1.37352 19.173 1.0153 19.9988 0.519297C19.6791 1.53885 19.0132 2.36551 18.1608 2.91662C19.0132 2.8064 19.8123 2.58596 20.5581 2.22774C20.0254 3.10951 19.3328 3.88106 18.5071 4.48728Z" fill="#344440"/>
</svg>
