<svg width="19" height="16" viewBox="0 0 19 16" fill="none" xmlns="http://www.w3.org/2000/svg">
<path d="M16.3516 4.05142C16.3516 4.2167 16.3516 4.38197 16.3516 4.52364C16.3516 9.4111 12.6484 15.0541 5.89844 15.0541C3.8125 15.0541 1.89062 14.4402 0.25 13.4014C0.53125 13.425 0.835937 13.4486 1.11719 13.4486C2.82812 13.4486 4.42187 12.8583 5.6875 11.8666C4.07031 11.843 2.71094 10.7569 2.26562 9.29305C2.5 9.34027 2.71094 9.36388 2.96875 9.36388C3.29687 9.36388 3.625 9.31666 3.92969 9.22222C2.24219 8.89166 0.976562 7.40417 0.976562 5.60974C0.976562 5.58613 0.976562 5.58613 0.976562 5.56252C1.46875 5.84585 2.03125 6.01113 2.64062 6.03474C1.65625 5.37363 1 4.24031 1 2.94171C1 2.25699 1.1875 1.61949 1.49219 1.07644C3.29687 3.31948 6.01562 4.78336 9.0625 4.94864C8.99219 4.68892 8.96875 4.38197 8.96875 4.09864C8.96875 2.04449 10.6094 0.391724 12.6484 0.391724C13.7031 0.391724 14.6641 0.840332 15.3203 1.54866C16.1641 1.38338 16.9375 1.07644 17.6641 0.651444C17.3828 1.52505 16.7969 2.23338 16.0469 2.7056C16.7969 2.61115 17.5 2.42226 18.1562 2.11532C17.6875 2.87087 17.0781 3.53198 16.3516 4.05142Z" fill="white"/>
</svg>
